<svg xmlns="http://www.w3.org/2000/svg" xmlns:xlink="http://www.w3.org/1999/xlink" width="500" zoomAndPan="magnify" viewBox="0 0 375 374.999991" height="500" preserveAspectRatio="xMidYMid meet" version="1.0"><defs><g/><clipPath id="c53c19cc0c"><path d="M 77.488281 77.488281 L 297.511719 77.488281 L 297.511719 297.511719 L 77.488281 297.511719 Z M 77.488281 77.488281 " clip-rule="nonzero"/></clipPath><clipPath id="e14292aa6c"><path d="M 187.5 77.488281 C 126.742188 77.488281 77.488281 126.742188 77.488281 187.5 C 77.488281 248.257812 126.742188 297.511719 187.5 297.511719 C 248.257812 297.511719 297.511719 248.257812 297.511719 187.5 C 297.511719 126.742188 248.257812 77.488281 187.5 77.488281 Z M 187.5 77.488281 " clip-rule="nonzero"/></clipPath><clipPath id="89fc1023a7"><path d="M 0.488281 0.488281 L 220.511719 0.488281 L 220.511719 220.511719 L 0.488281 220.511719 Z M 0.488281 0.488281 " clip-rule="nonzero"/></clipPath><clipPath id="2c24837f29"><path d="M 110.5 0.488281 C 49.742188 0.488281 0.488281 49.742188 0.488281 110.5 C 0.488281 171.257812 49.742188 220.511719 110.5 220.511719 C 171.257812 220.511719 220.511719 171.257812 220.511719 110.5 C 220.511719 49.742188 171.257812 0.488281 110.5 0.488281 Z M 110.5 0.488281 " clip-rule="nonzero"/></clipPath><clipPath id="8173de7754"><rect x="0" width="221" y="0" height="221"/></clipPath><clipPath id="9b85a4d116"><path d="M 141 124.410156 L 199 124.410156 L 199 203 L 141 203 Z M 141 124.410156 " clip-rule="nonzero"/></clipPath><clipPath id="b8b370ccea"><path d="M 192.964844 222.320312 L 207.761719 222.320312 L 207.761719 237.117188 L 192.964844 237.117188 Z M 192.964844 222.320312 " clip-rule="nonzero"/></clipPath><clipPath id="442f6d772d"><path d="M 200.363281 222.320312 C 196.277344 222.320312 192.964844 225.632812 192.964844 229.71875 C 192.964844 233.804688 196.277344 237.117188 200.363281 237.117188 C 204.449219 237.117188 207.761719 233.804688 207.761719 229.71875 C 207.761719 225.632812 204.449219 222.320312 200.363281 222.320312 Z M 200.363281 222.320312 " clip-rule="nonzero"/></clipPath><clipPath id="bc4d6ddd5b"><path d="M 0.964844 0.320312 L 15.761719 0.320312 L 15.761719 15.117188 L 0.964844 15.117188 Z M 0.964844 0.320312 " clip-rule="nonzero"/></clipPath><clipPath id="36fe683f44"><path d="M 8.363281 0.320312 C 4.277344 0.320312 0.964844 3.632812 0.964844 7.71875 C 0.964844 11.804688 4.277344 15.117188 8.363281 15.117188 C 12.449219 15.117188 15.761719 11.804688 15.761719 7.71875 C 15.761719 3.632812 12.449219 0.320312 8.363281 0.320312 Z M 8.363281 0.320312 " clip-rule="nonzero"/></clipPath><clipPath id="b92c2d65a8"><rect x="0" width="16" y="0" height="16"/></clipPath><clipPath id="220a219282"><path d="M 182.164062 224.59375 L 198.835938 224.59375 L 198.835938 241.265625 L 182.164062 241.265625 Z M 182.164062 224.59375 " clip-rule="nonzero"/></clipPath><clipPath id="cd0a4d6c07"><path d="M 190.5 224.59375 C 185.894531 224.59375 182.164062 228.324219 182.164062 232.929688 C 182.164062 237.535156 185.894531 241.265625 190.5 241.265625 C 195.105469 241.265625 198.835938 237.535156 198.835938 232.929688 C 198.835938 228.324219 195.105469 224.59375 190.5 224.59375 Z M 190.5 224.59375 " clip-rule="nonzero"/></clipPath><clipPath id="7f359fdf70"><path d="M 0.164062 0.59375 L 16.835938 0.59375 L 16.835938 17.265625 L 0.164062 17.265625 Z M 0.164062 0.59375 " clip-rule="nonzero"/></clipPath><clipPath id="59da3d677e"><path d="M 8.5 0.59375 C 3.894531 0.59375 0.164062 4.324219 0.164062 8.929688 C 0.164062 13.535156 3.894531 17.265625 8.5 17.265625 C 13.105469 17.265625 16.835938 13.535156 16.835938 8.929688 C 16.835938 4.324219 13.105469 0.59375 8.5 0.59375 Z M 8.5 0.59375 " clip-rule="nonzero"/></clipPath><clipPath id="6c94af86ff"><rect x="0" width="17" y="0" height="18"/></clipPath><clipPath id="8ec0c71493"><path d="M 166.328125 220.09375 L 187.5 220.09375 L 187.5 241.265625 L 166.328125 241.265625 Z M 166.328125 220.09375 " clip-rule="nonzero"/></clipPath><clipPath id="35885b33a3"><path d="M 176.914062 220.09375 C 171.066406 220.09375 166.328125 224.835938 166.328125 230.679688 C 166.328125 236.527344 171.066406 241.265625 176.914062 241.265625 C 182.761719 241.265625 187.5 236.527344 187.5 230.679688 C 187.5 224.835938 182.761719 220.09375 176.914062 220.09375 Z M 176.914062 220.09375 " clip-rule="nonzero"/></clipPath><clipPath id="bd998a4424"><path d="M 0.328125 0.09375 L 21.5 0.09375 L 21.5 21.265625 L 0.328125 21.265625 Z M 0.328125 0.09375 " clip-rule="nonzero"/></clipPath><clipPath id="a593125ecd"><path d="M 10.914062 0.09375 C 5.066406 0.09375 0.328125 4.835938 0.328125 10.679688 C 0.328125 16.527344 5.066406 21.265625 10.914062 21.265625 C 16.761719 21.265625 21.5 16.527344 21.5 10.679688 C 21.5 4.835938 16.761719 0.09375 10.914062 0.09375 Z M 10.914062 0.09375 " clip-rule="nonzero"/></clipPath><clipPath id="f7925c9c52"><rect x="0" width="22" y="0" height="22"/></clipPath><clipPath id="7b41191603"><path d="M 216.222656 220.09375 L 229.597656 220.09375 L 229.597656 233.46875 L 216.222656 233.46875 Z M 216.222656 220.09375 " clip-rule="nonzero"/></clipPath><clipPath id="e9745bb0ba"><path d="M 222.910156 220.09375 C 219.21875 220.09375 216.222656 223.089844 216.222656 226.78125 C 216.222656 230.472656 219.21875 233.46875 222.910156 233.46875 C 226.601562 233.46875 229.597656 230.472656 229.597656 226.78125 C 229.597656 223.089844 226.601562 220.09375 222.910156 220.09375 Z M 222.910156 220.09375 " clip-rule="nonzero"/></clipPath><clipPath id="c794616f21"><path d="M 0.222656 0.09375 L 13.597656 0.09375 L 13.597656 13.46875 L 0.222656 13.46875 Z M 0.222656 0.09375 " clip-rule="nonzero"/></clipPath><clipPath id="55a53d4e38"><path d="M 6.910156 0.09375 C 3.21875 0.09375 0.222656 3.089844 0.222656 6.78125 C 0.222656 10.472656 3.21875 13.46875 6.910156 13.46875 C 10.601562 13.46875 13.597656 10.472656 13.597656 6.78125 C 13.597656 3.089844 10.601562 0.09375 6.910156 0.09375 Z M 6.910156 0.09375 " clip-rule="nonzero"/></clipPath><clipPath id="cf1b888924"><rect x="0" width="14" y="0" height="14"/></clipPath><clipPath id="3816f8c7e7"><path d="M 207.761719 222.320312 L 221.882812 222.320312 L 221.882812 236.441406 L 207.761719 236.441406 Z M 207.761719 222.320312 " clip-rule="nonzero"/></clipPath><clipPath id="f0861a2c6f"><path d="M 214.820312 222.320312 C 210.921875 222.320312 207.761719 225.480469 207.761719 229.378906 C 207.761719 233.28125 210.921875 236.441406 214.820312 236.441406 C 218.722656 236.441406 221.882812 233.28125 221.882812 229.378906 C 221.882812 225.480469 218.722656 222.320312 214.820312 222.320312 Z M 214.820312 222.320312 " clip-rule="nonzero"/></clipPath><clipPath id="97217efd0e"><path d="M 0.761719 0.320312 L 14.882812 0.320312 L 14.882812 14.441406 L 0.761719 14.441406 Z M 0.761719 0.320312 " clip-rule="nonzero"/></clipPath><clipPath id="cfc986b21e"><path d="M 7.820312 0.320312 C 3.921875 0.320312 0.761719 3.480469 0.761719 7.378906 C 0.761719 11.28125 3.921875 14.441406 7.820312 14.441406 C 11.722656 14.441406 14.882812 11.28125 14.882812 7.378906 C 14.882812 3.480469 11.722656 0.320312 7.820312 0.320312 Z M 7.820312 0.320312 " clip-rule="nonzero"/></clipPath><clipPath id="d4ae639bc8"><rect x="0" width="15" y="0" height="15"/></clipPath><clipPath id="ed74bfbfb5"><path d="M 200.363281 227.570312 L 215.160156 227.570312 L 215.160156 242.367188 L 200.363281 242.367188 Z M 200.363281 227.570312 " clip-rule="nonzero"/></clipPath><clipPath id="dcdf62763d"><path d="M 207.761719 227.570312 C 203.675781 227.570312 200.363281 230.882812 200.363281 234.96875 C 200.363281 239.054688 203.675781 242.367188 207.761719 242.367188 C 211.847656 242.367188 215.160156 239.054688 215.160156 234.96875 C 215.160156 230.882812 211.847656 227.570312 207.761719 227.570312 Z M 207.761719 227.570312 " clip-rule="nonzero"/></clipPath><clipPath id="ce05ae2407"><path d="M 0.363281 0.570312 L 15.160156 0.570312 L 15.160156 15.367188 L 0.363281 15.367188 Z M 0.363281 0.570312 " clip-rule="nonzero"/></clipPath><clipPath id="1bda9e986c"><path d="M 7.761719 0.570312 C 3.675781 0.570312 0.363281 3.882812 0.363281 7.96875 C 0.363281 12.054688 3.675781 15.367188 7.761719 15.367188 C 11.847656 15.367188 15.160156 12.054688 15.160156 7.96875 C 15.160156 3.882812 11.847656 0.570312 7.761719 0.570312 Z M 7.761719 0.570312 " clip-rule="nonzero"/></clipPath><clipPath id="28c505af69"><rect x="0" width="16" y="0" height="16"/></clipPath><clipPath id="35385474a1"><rect x="0" width="150" y="0" height="35"/></clipPath></defs><g clip-path="url(#c53c19cc0c)"><g clip-path="url(#e14292aa6c)"><g transform="matrix(1, 0, 0, 1, 77, 77)"><g clip-path="url(#8173de7754)"><g clip-path="url(#89fc1023a7)"><g clip-path="url(#2c24837f29)"><path fill="#f5f5f5" d="M 0.488281 0.488281 L 220.511719 0.488281 L 220.511719 220.511719 L 0.488281 220.511719 Z M 0.488281 0.488281 " fill-opacity="1" fill-rule="nonzero"/></g></g></g></g></g></g><path fill="#2ecc71" d="M 226.820312 214.3125 C 215.660156 232.503906 201.984375 234.925781 189.015625 229.464844 C 189.089844 226.839844 189.292969 224.007812 189.679688 221.027344 C 192.214844 201.484375 217.125 169.054688 217.421875 168.667969 C 217.121094 168.917969 191.894531 189.929688 183.367188 216.183594 C 182.285156 219.515625 181.5625 222.496094 181.128906 225.164062 C 167.617188 216.089844 161.222656 201.917969 173.640625 181.679688 C 186.582031 160.589844 229.738281 149.90625 229.738281 149.90625 C 229.738281 149.90625 239.761719 193.21875 226.820312 214.3125 Z M 226.820312 214.3125 " fill-opacity="1" fill-rule="nonzero"/><g clip-path="url(#9b85a4d116)"><path fill="#27ae60" d="M 198.097656 157.128906 C 188.585938 161.632812 178.84375 167.613281 172.746094 175.066406 C 163.644531 160.832031 155.910156 145.578125 155.730469 145.136719 C 155.808594 145.601562 159.777344 162.566406 169.40625 179.949219 C 164.425781 188.496094 162.84375 195.9375 163.746094 202.351562 C 157.371094 200.140625 151.386719 194.859375 146.3125 185.417969 C 135.234375 164.804688 147.046875 124.453125 147.046875 124.453125 C 147.046875 124.453125 186.75 136.730469 198.097656 157.128906 Z M 198.097656 157.128906 " fill-opacity="1" fill-rule="nonzero"/></g><g clip-path="url(#b8b370ccea)"><g clip-path="url(#442f6d772d)"><g transform="matrix(1, 0, 0, 1, 192, 222)"><g clip-path="url(#b92c2d65a8)"><g clip-path="url(#bc4d6ddd5b)"><g clip-path="url(#36fe683f44)"><path fill="#f5f5f5" d="M 0.964844 0.320312 L 15.761719 0.320312 L 15.761719 15.117188 L 0.964844 15.117188 Z M 0.964844 0.320312 " fill-opacity="1" fill-rule="nonzero"/></g></g></g></g></g></g><g clip-path="url(#220a219282)"><g clip-path="url(#cd0a4d6c07)"><g transform="matrix(1, 0, 0, 1, 182, 224)"><g clip-path="url(#6c94af86ff)"><g clip-path="url(#7f359fdf70)"><g clip-path="url(#59da3d677e)"><path fill="#f5f5f5" d="M 0.164062 0.59375 L 16.835938 0.59375 L 16.835938 17.265625 L 0.164062 17.265625 Z M 0.164062 0.59375 " fill-opacity="1" fill-rule="nonzero"/></g></g></g></g></g></g><g clip-path="url(#8ec0c71493)"><g clip-path="url(#35885b33a3)"><g transform="matrix(1, 0, 0, 1, 166, 220)"><g clip-path="url(#f7925c9c52)"><g clip-path="url(#bd998a4424)"><g clip-path="url(#a593125ecd)"><path fill="#f5f5f5" d="M 0.328125 0.09375 L 21.5 0.09375 L 21.5 21.265625 L 0.328125 21.265625 Z M 0.328125 0.09375 " fill-opacity="1" fill-rule="nonzero"/></g></g></g></g></g></g><g clip-path="url(#7b41191603)"><g clip-path="url(#e9745bb0ba)"><g transform="matrix(1, 0, 0, 1, 216, 220)"><g clip-path="url(#cf1b888924)"><g clip-path="url(#c794616f21)"><g clip-path="url(#55a53d4e38)"><path fill="#f5f5f5" d="M 0.222656 0.09375 L 13.597656 0.09375 L 13.597656 13.46875 L 0.222656 13.46875 Z M 0.222656 0.09375 " fill-opacity="1" fill-rule="nonzero"/></g></g></g></g></g></g><g clip-path="url(#3816f8c7e7)"><g clip-path="url(#f0861a2c6f)"><g transform="matrix(1, 0, 0, 1, 207, 222)"><g clip-path="url(#d4ae639bc8)"><g clip-path="url(#97217efd0e)"><g clip-path="url(#cfc986b21e)"><path fill="#f5f5f5" d="M 0.761719 0.320312 L 14.882812 0.320312 L 14.882812 14.441406 L 0.761719 14.441406 Z M 0.761719 0.320312 " fill-opacity="1" fill-rule="nonzero"/></g></g></g></g></g></g><g clip-path="url(#ed74bfbfb5)"><g clip-path="url(#dcdf62763d)"><g transform="matrix(1, 0, 0, 1, 200, 227)"><g clip-path="url(#28c505af69)"><g clip-path="url(#ce05ae2407)"><g clip-path="url(#1bda9e986c)"><path fill="#f5f5f5" d="M 0.363281 0.570312 L 15.160156 0.570312 L 15.160156 15.367188 L 0.363281 15.367188 Z M 0.363281 0.570312 " fill-opacity="1" fill-rule="nonzero"/></g></g></g></g></g></g><g transform="matrix(1, 0, 0, 1, 112, 217)"><g clip-path="url(#35385474a1)"><g fill="#2c3e50" fill-opacity="1"><g transform="translate(3.330205, 27.502274)"><g><path d="M 20.5 -18.984375 L 12.28125 0 L 7.9375 0 L -0.25 -18.984375 L 4.5 -18.984375 L 10.28125 -5.421875 L 16.125 -18.984375 Z M 20.5 -18.984375 "/></g></g></g><g fill="#2c3e50" fill-opacity="1"><g transform="translate(22.048892, 27.502274)"><g><path d="M 16.234375 -7.234375 C 16.234375 -7.179688 16.207031 -6.800781 16.15625 -6.09375 L 5.125 -6.09375 C 5.320312 -5.195312 5.789062 -4.484375 6.53125 -3.953125 C 7.269531 -3.429688 8.191406 -3.171875 9.296875 -3.171875 C 10.054688 -3.171875 10.726562 -3.28125 11.3125 -3.5 C 11.90625 -3.726562 12.453125 -4.085938 12.953125 -4.578125 L 15.203125 -2.140625 C 13.828125 -0.566406 11.820312 0.21875 9.1875 0.21875 C 7.539062 0.21875 6.082031 -0.0976562 4.8125 -0.734375 C 3.550781 -1.378906 2.578125 -2.269531 1.890625 -3.40625 C 1.210938 -4.550781 0.875 -5.847656 0.875 -7.296875 C 0.875 -8.722656 1.210938 -10.007812 1.890625 -11.15625 C 2.566406 -12.300781 3.492188 -13.191406 4.671875 -13.828125 C 5.859375 -14.472656 7.179688 -14.796875 8.640625 -14.796875 C 10.078125 -14.796875 11.375 -14.488281 12.53125 -13.875 C 13.6875 -13.257812 14.59375 -12.378906 15.25 -11.234375 C 15.90625 -10.085938 16.234375 -8.753906 16.234375 -7.234375 Z M 8.671875 -11.609375 C 7.710938 -11.609375 6.90625 -11.332031 6.25 -10.78125 C 5.601562 -10.238281 5.207031 -9.5 5.0625 -8.5625 L 12.25 -8.5625 C 12.101562 -9.488281 11.703125 -10.226562 11.046875 -10.78125 C 10.398438 -11.332031 9.609375 -11.609375 8.671875 -11.609375 Z M 8.671875 -11.609375 "/></g></g></g><g fill="#2c3e50" fill-opacity="1"><g transform="translate(39.143051, 27.502274)"><g><path d="M 5.984375 -12.65625 C 6.492188 -13.363281 7.175781 -13.894531 8.03125 -14.25 C 8.894531 -14.613281 9.882812 -14.796875 11 -14.796875 L 11 -10.890625 C 10.53125 -10.929688 10.21875 -10.953125 10.0625 -10.953125 C 8.84375 -10.953125 7.890625 -10.613281 7.203125 -9.9375 C 6.523438 -9.257812 6.1875 -8.242188 6.1875 -6.890625 L 6.1875 0 L 1.953125 0 L 1.953125 -14.578125 L 5.984375 -14.578125 Z M 5.984375 -12.65625 "/></g></g></g><g fill="#2c3e50" fill-opacity="1"><g transform="translate(50.575133, 27.502274)"><g><path d="M 16.8125 -20.109375 L 16.8125 0 L 12.765625 0 L 12.765625 -1.6875 C 11.722656 -0.414062 10.207031 0.21875 8.21875 0.21875 C 6.84375 0.21875 5.597656 -0.0859375 4.484375 -0.703125 C 3.367188 -1.316406 2.492188 -2.191406 1.859375 -3.328125 C 1.234375 -4.472656 0.921875 -5.796875 0.921875 -7.296875 C 0.921875 -8.796875 1.234375 -10.113281 1.859375 -11.25 C 2.492188 -12.382812 3.367188 -13.257812 4.484375 -13.875 C 5.597656 -14.488281 6.84375 -14.796875 8.21875 -14.796875 C 10.070312 -14.796875 11.523438 -14.210938 12.578125 -13.046875 L 12.578125 -20.109375 Z M 8.953125 -3.25 C 10.015625 -3.25 10.894531 -3.613281 11.59375 -4.34375 C 12.300781 -5.082031 12.65625 -6.066406 12.65625 -7.296875 C 12.65625 -8.523438 12.300781 -9.503906 11.59375 -10.234375 C 10.894531 -10.960938 10.015625 -11.328125 8.953125 -11.328125 C 7.859375 -11.328125 6.957031 -10.960938 6.25 -10.234375 C 5.550781 -9.503906 5.203125 -8.523438 5.203125 -7.296875 C 5.203125 -6.066406 5.550781 -5.082031 6.25 -4.34375 C 6.957031 -3.613281 7.859375 -3.25 8.953125 -3.25 Z M 8.953125 -3.25 "/></g></g></g><g fill="#2c3e50" fill-opacity="1"><g transform="translate(69.321819, 27.502274)"><g><path d="M 16.234375 -7.234375 C 16.234375 -7.179688 16.207031 -6.800781 16.15625 -6.09375 L 5.125 -6.09375 C 5.320312 -5.195312 5.789062 -4.484375 6.53125 -3.953125 C 7.269531 -3.429688 8.191406 -3.171875 9.296875 -3.171875 C 10.054688 -3.171875 10.726562 -3.28125 11.3125 -3.5 C 11.90625 -3.726562 12.453125 -4.085938 12.953125 -4.578125 L 15.203125 -2.140625 C 13.828125 -0.566406 11.820312 0.21875 9.1875 0.21875 C 7.539062 0.21875 6.082031 -0.0976562 4.8125 -0.734375 C 3.550781 -1.378906 2.578125 -2.269531 1.890625 -3.40625 C 1.210938 -4.550781 0.875 -5.847656 0.875 -7.296875 C 0.875 -8.722656 1.210938 -10.007812 1.890625 -11.15625 C 2.566406 -12.300781 3.492188 -13.191406 4.671875 -13.828125 C 5.859375 -14.472656 7.179688 -14.796875 8.640625 -14.796875 C 10.078125 -14.796875 11.375 -14.488281 12.53125 -13.875 C 13.6875 -13.257812 14.59375 -12.378906 15.25 -11.234375 C 15.90625 -10.085938 16.234375 -8.753906 16.234375 -7.234375 Z M 8.671875 -11.609375 C 7.710938 -11.609375 6.90625 -11.332031 6.25 -10.78125 C 5.601562 -10.238281 5.207031 -9.5 5.0625 -8.5625 L 12.25 -8.5625 C 12.101562 -9.488281 11.703125 -10.226562 11.046875 -10.78125 C 10.398438 -11.332031 9.609375 -11.609375 8.671875 -11.609375 Z M 8.671875 -11.609375 "/></g></g></g><g fill="#2c3e50" fill-opacity="1"><g transform="translate(85.873843, 27.502274)"><g><path d="M 20.5 -18.984375 L 12.28125 0 L 7.9375 0 L -0.25 -18.984375 L 4.5 -18.984375 L 10.28125 -5.421875 L 16.125 -18.984375 Z M 20.5 -18.984375 "/></g></g></g><g fill="#2c3e50" fill-opacity="1"><g transform="translate(105.94787, 27.502274)"><g><path d="M 1.953125 -14.578125 L 6.1875 -14.578125 L 6.1875 0 L 1.953125 0 Z M 4.0625 -16.625 C 3.289062 -16.625 2.660156 -16.847656 2.171875 -17.296875 C 1.679688 -17.742188 1.4375 -18.304688 1.4375 -18.984375 C 1.4375 -19.648438 1.679688 -20.207031 2.171875 -20.65625 C 2.660156 -21.101562 3.289062 -21.328125 4.0625 -21.328125 C 4.84375 -21.328125 5.476562 -21.109375 5.96875 -20.671875 C 6.457031 -20.242188 6.703125 -19.707031 6.703125 -19.0625 C 6.703125 -18.351562 6.457031 -17.769531 5.96875 -17.3125 C 5.476562 -16.851562 4.84375 -16.625 4.0625 -16.625 Z M 4.0625 -16.625 "/></g></g></g><g fill="#2c3e50" fill-opacity="1"><g transform="translate(114.102135, 27.502274)"><g><path d="M 16.421875 -14.578125 L 10.28125 0 L 5.90625 0 L -0.21875 -14.578125 L 4.140625 -14.578125 L 8.1875 -4.65625 L 12.359375 -14.578125 Z M 16.421875 -14.578125 "/></g></g></g><g fill="#2c3e50" fill-opacity="1"><g transform="translate(129.895678, 27.502274)"><g><path d="M 8.890625 0.21875 C 7.359375 0.21875 5.976562 -0.0976562 4.75 -0.734375 C 3.53125 -1.378906 2.578125 -2.269531 1.890625 -3.40625 C 1.210938 -4.550781 0.875 -5.847656 0.875 -7.296875 C 0.875 -8.742188 1.210938 -10.035156 1.890625 -11.171875 C 2.578125 -12.304688 3.53125 -13.191406 4.75 -13.828125 C 5.976562 -14.472656 7.359375 -14.796875 8.890625 -14.796875 C 10.429688 -14.796875 11.804688 -14.472656 13.015625 -13.828125 C 14.222656 -13.191406 15.171875 -12.304688 15.859375 -11.171875 C 16.546875 -10.035156 16.890625 -8.742188 16.890625 -7.296875 C 16.890625 -5.847656 16.546875 -4.550781 15.859375 -3.40625 C 15.171875 -2.269531 14.222656 -1.378906 13.015625 -0.734375 C 11.804688 -0.0976562 10.429688 0.21875 8.890625 0.21875 Z M 8.890625 -3.25 C 9.972656 -3.25 10.863281 -3.613281 11.5625 -4.34375 C 12.257812 -5.082031 12.609375 -6.066406 12.609375 -7.296875 C 12.609375 -8.523438 12.257812 -9.503906 11.5625 -10.234375 C 10.863281 -10.960938 9.972656 -11.328125 8.890625 -11.328125 C 7.804688 -11.328125 6.910156 -10.960938 6.203125 -10.234375 C 5.503906 -9.503906 5.15625 -8.523438 5.15625 -7.296875 C 5.15625 -6.066406 5.503906 -5.082031 6.203125 -4.34375 C 6.910156 -3.613281 7.804688 -3.25 8.890625 -3.25 Z M 8.890625 -3.25 "/></g></g></g></g></g></svg>